<?xml version="1.0" encoding="UTF-8" standalone="no"?>
<!DOCTYPE svg PUBLIC "-//W3C//DTD SVG 1.1//EN" "http://www.w3.org/Graphics/SVG/1.1/DTD/svg11.dtd">
<!-- Created with Vectornator (http://vectornator.io/) -->
<svg height="100%" stroke-miterlimit="10" style="fill-rule:nonzero;clip-rule:evenodd;stroke-linecap:round;stroke-linejoin:round;" version="1.1" viewBox="0 0 720.896 248.273" width="100%" xml:space="preserve" xmlns="http://www.w3.org/2000/svg" xmlns:vectornator="http://vectornator.io" xmlns:xlink="http://www.w3.org/1999/xlink">
<defs>
<clipPath id="TextBounds">
<rect height="124.381" width="703.638" x="11.7628" y="59.9467"/>
</clipPath>
<filter color-interpolation-filters="sRGB" filterUnits="userSpaceOnUse" height="94.0234" id="Filter" width="630.098" x="51.075" y="77.9875">
<feDropShadow dx="2.57114" dy="3.06419" flood-color="#24ff01" flood-opacity="0.308308" in="SourceGraphic" result="Shadow" stdDeviation="2.5"/>
</filter>
</defs>
<g id="Calque-1" vectornator:layerName="Calque 1">
<g fill="#44ff3c" filter="url(#Filter)" stroke="none" vectornator:shadowAngle="0.872667" vectornator:shadowColor="#24ff01" vectornator:shadowOffset="4" vectornator:shadowOpacity="0.308308" vectornator:shadowRadius="5">
<path clip-path="url(#TextBounds)" d="M53.5039 154.396L53.5039 127.677L57.3125 123.869L61.1211 127.677L61.1211 154.396L57.3125 158.205L53.5039 154.396ZM53.5039 116.193L53.5039 89.4741L57.3125 85.6655L61.1211 89.4741L61.1211 116.193L57.3125 120.06L53.5039 116.193ZM59.2461 160.138L63.0547 156.33L89.7734 156.33L93.582 160.138L89.7734 163.947L63.0547 163.947L59.2461 160.138ZM59.2461 83.7905L63.0547 79.9233L89.7734 79.9233L93.582 83.7905L89.7734 87.5991L63.0547 87.5991L59.2461 83.7905Z" fill-rule="evenodd"/>
<path clip-path="url(#TextBounds)" d="M108.055 154.396L108.055 127.677L111.863 123.869L115.672 127.677L115.672 154.396L111.863 158.205L108.055 154.396ZM108.055 116.193L108.055 89.4741L111.863 85.6655L115.672 89.4741L115.672 116.193L111.863 120.06L108.055 116.193ZM113.797 160.138L117.605 156.33L144.324 156.33L148.133 160.138L144.324 163.947L117.605 163.947L113.797 160.138ZM113.797 83.7905L117.605 79.9233L144.324 79.9233L148.133 83.7905L144.324 87.5991L117.605 87.5991L113.797 83.7905ZM146.258 154.396L146.258 127.677L150.066 123.869L153.875 127.677L153.875 154.396L150.066 158.205L146.258 154.396ZM146.258 116.193L146.258 89.4741L150.066 85.6655L153.875 89.4741L153.875 116.193L150.066 120.06L146.258 116.193Z" fill-rule="evenodd"/>
<path clip-path="url(#TextBounds)" d="M168.289 154.396L168.289 127.677L172.098 123.869L175.906 127.677L175.906 154.396L172.098 158.205L168.289 154.396ZM168.289 116.193L168.289 83.7905L172.098 79.9233L175.906 83.7905L175.906 116.193L172.098 120.06L168.289 116.193ZM174.031 160.138L177.84 156.33L204.559 156.33L208.367 160.138L204.559 163.947L177.84 163.947L174.031 160.138ZM206.492 154.396L206.492 127.677L210.301 123.869L214.109 127.677L214.109 154.396L210.301 158.205L206.492 154.396ZM206.492 116.193L206.492 83.7905L210.301 79.9233L214.109 83.7905L214.109 116.193L210.301 120.06L206.492 116.193Z" fill-rule="evenodd"/>
<path clip-path="url(#TextBounds)" d="M228.523 160.138L228.523 127.677L232.332 123.869L236.141 127.677L236.141 160.138L232.332 163.947L228.523 160.138ZM228.523 116.251L228.523 89.4741L232.332 85.6655L236.141 89.4741L236.141 116.251L232.332 120.06L228.523 116.251ZM234.266 83.7905L238.074 79.9819L264.793 79.9819L268.602 83.7905L264.793 87.5991L238.074 87.5991L234.266 83.7905ZM266.727 160.138L266.727 127.677L270.535 123.869L274.344 127.677L274.344 160.138L270.535 163.947L266.727 160.138ZM266.727 116.251L266.727 89.4741L270.535 85.6655L274.344 89.4741L274.344 116.251L270.535 120.06L266.727 116.251Z" fill-rule="evenodd"/>
<path clip-path="url(#TextBounds)" d="M288.758 83.7905L292.566 79.9233L310.848 79.9233L314.656 83.7905L310.848 87.5991L292.566 87.5991L288.758 83.7905ZM312.781 160.138L312.781 127.677L316.648 123.869L320.457 127.677L320.457 160.138L316.648 163.947L312.781 160.138ZM312.781 116.193L312.781 89.4741L316.648 85.6655L320.457 89.4741L320.457 116.193L316.648 120.06L312.781 116.193ZM318.582 83.7905L322.391 79.9233L340.672 79.9233L344.48 83.7905L340.672 87.5991L322.391 87.5991L318.582 83.7905Z" fill-rule="evenodd"/>
<path clip-path="url(#TextBounds)" d="M394.93 154.396L394.93 127.677L398.738 123.869L402.547 127.677L402.547 154.396L398.738 158.205L394.93 154.396ZM394.93 116.193L394.93 89.4741L398.738 85.6655L402.547 89.4741L402.547 116.193L398.738 120.06L394.93 116.193ZM400.672 160.138L404.48 156.33L431.199 156.33L435.008 160.138L431.199 163.947L404.48 163.947L400.672 160.138ZM400.672 83.7905L404.48 79.9233L431.199 79.9233L435.008 83.7905L431.199 87.5991L404.48 87.5991L400.672 83.7905ZM433.133 154.396L433.133 127.677L436.941 123.869L440.75 127.677L440.75 154.396L436.941 158.205L433.133 154.396ZM433.133 116.193L433.133 89.4741L436.941 85.6655L440.75 89.4741L440.75 116.193L436.941 120.06L433.133 116.193Z" fill-rule="evenodd"/>
<path clip-path="url(#TextBounds)" d="M455.164 160.138L455.164 127.677L458.973 123.869L462.781 127.677L462.781 160.138L458.973 163.947L455.164 160.138ZM455.164 116.251L455.164 89.4741L458.973 85.6655L462.781 89.4741L462.781 116.251L458.973 120.06L455.164 116.251ZM460.906 83.7905L464.715 79.9819L491.434 79.9819L495.242 83.7905L491.434 87.5991L464.715 87.5991L460.906 83.7905ZM493.367 160.138L493.367 127.677L497.176 123.869L500.984 127.677L500.984 160.138L497.176 163.947L493.367 160.138ZM493.367 116.251L493.367 89.4741L497.176 85.6655L500.984 89.4741L500.984 116.251L497.176 120.06L493.367 116.251Z" fill-rule="evenodd"/>
<path clip-path="url(#TextBounds)" d="M551.375 160.138L551.375 127.736L555.184 123.927L558.992 127.736L558.992 160.138L555.184 163.947L551.375 160.138ZM551.375 116.31L551.375 89.5913L555.184 85.7827L558.992 89.5913L558.992 116.31L555.184 120.119L551.375 116.31ZM557 83.7905L560.809 79.9233L579.5 79.9233L583.367 83.7905L579.5 87.5991L560.809 87.5991L557 83.7905ZM581.434 116.31L581.434 89.5913L585.242 85.7827L589.051 89.5913L589.051 116.31L585.242 120.119L581.434 116.31ZM587.176 83.7905L590.984 79.9233L609.676 79.9233L613.484 83.7905L609.676 87.5991L590.984 87.5991L587.176 83.7905ZM611.492 160.138L611.492 127.736L615.301 123.927L619.109 127.736L619.109 160.138L615.301 163.947L611.492 160.138ZM611.492 116.31L611.492 89.5913L615.301 85.7827L619.109 89.5913L619.109 116.31L615.301 120.119L611.492 116.31Z" fill-rule="evenodd"/>
<path clip-path="url(#TextBounds)" d="M633.523 154.396L633.523 127.677L637.332 123.869L641.141 127.677L641.141 154.396L637.332 158.205L633.523 154.396ZM633.523 116.193L633.523 89.4741L637.332 85.6655L641.141 89.4741L641.141 116.193L637.332 120.06L633.523 116.193ZM639.266 160.138L643.074 156.33L669.793 156.33L673.602 160.138L669.793 163.947L643.074 163.947L639.266 160.138ZM639.266 121.935L643.074 118.126L669.793 118.126L673.602 121.935L669.793 125.744L643.074 125.744L639.266 121.935ZM639.266 83.7905L643.074 79.9233L669.793 79.9233L673.602 83.7905L669.793 87.5991L643.074 87.5991L639.266 83.7905Z" fill-rule="evenodd"/>
</g>
</g>
</svg>
