<?xml version="1.0" encoding="UTF-8" standalone="no"?>
<!DOCTYPE svg PUBLIC "-//W3C//DTD SVG 1.1//EN" "http://www.w3.org/Graphics/SVG/1.1/DTD/svg11.dtd">
<!-- Created with Vectornator (http://vectornator.io/) -->
<svg height="100%" stroke-miterlimit="10" style="fill-rule:nonzero;clip-rule:evenodd;stroke-linecap:round;stroke-linejoin:round;" version="1.1" viewBox="0 0 1024 1024" width="100%" xml:space="preserve" xmlns="http://www.w3.org/2000/svg" xmlns:vectornator="http://vectornator.io" xmlns:xlink="http://www.w3.org/1999/xlink">
<defs>
<filter color-interpolation-filters="sRGB" filterUnits="userSpaceOnUse" height="397.943" id="Filter" width="397.366" x="105.842" y="533.623">
<feDropShadow dx="6.42786" dy="7.66046" flood-color="#24ff01" flood-opacity="0.308308" in="SourceGraphic" result="Shadow" stdDeviation="5"/>
</filter>
<filter color-interpolation-filters="sRGB" filterUnits="userSpaceOnUse" height="397.365" id="Filter_2" width="397.943" x="534.612" y="533.569">
<feDropShadow dx="6.42786" dy="7.66046" flood-color="#24ff01" flood-opacity="0.308308" in="SourceGraphic" result="Shadow" stdDeviation="5"/>
</filter>
<filter color-interpolation-filters="sRGB" filterUnits="userSpaceOnUse" height="397.366" id="Filter_3" width="397.365" x="534.612" y="104.744">
<feDropShadow dx="6.42786" dy="7.66046" flood-color="#24ff01" flood-opacity="0.308308" in="SourceGraphic" result="Shadow" stdDeviation="5"/>
</filter>
<filter color-interpolation-filters="sRGB" filterUnits="userSpaceOnUse" height="397.366" id="Filter_4" width="397.366" x="105.842" y="104.798">
<feDropShadow dx="6.42786" dy="7.66046" flood-color="#24ff01" flood-opacity="0.308308" in="SourceGraphic" result="Shadow" stdDeviation="5"/>
</filter>
</defs>
<g id="Calque-1" vectornator:layerName="Calque 1">
<path d="M178.824 913.906L417.369 913.906C462.319 913.906 486.78 889.408 486.78 844.808L486.78 604.851C486.78 560.461 462.319 535.963 417.369 535.963L178.824 535.963C133.875 535.963 109.414 560.251 109.414 604.851L109.414 844.808C109.414 889.408 133.875 913.906 178.824 913.906ZM235.063 811.307C222.728 811.307 212.902 801.465 212.902 788.693C212.902 783.039 215.411 777.595 219.592 773.407L267.887 725.039L219.592 676.671C215.411 672.483 212.902 666.829 212.902 661.176C212.902 648.613 222.728 638.981 235.063 638.981C241.753 638.981 246.98 641.075 251.37 645.472L299.247 693.422L347.75 645.263C352.141 640.865 357.367 638.772 363.848 638.772C376.392 638.772 386.009 648.403 386.009 660.967C386.009 666.62 383.71 672.064 379.319 676.461L331.234 725.039L379.319 773.198C383.501 777.595 386.009 783.039 386.009 788.693C386.009 801.465 376.183 811.307 363.639 811.307C356.949 811.307 351.722 809.003 347.332 804.606L299.247 756.657L251.579 804.606C247.189 809.003 241.753 811.307 235.063 811.307Z" fill="#44ff3c" fill-rule="evenodd" filter="url(#Filter)" stroke="none" vectornator:shadowAngle="0.872667" vectornator:shadowColor="#24ff01" vectornator:shadowOffset="10" vectornator:shadowOpacity="0.308308" vectornator:shadowRadius="10"/>
<path d="M607.7 913.273L846.611 913.273C891.629 913.273 916.127 888.812 916.127 844.281L916.127 604.691C916.127 560.368 891.629 535.908 846.611 535.908L607.7 535.908C562.682 535.908 538.184 560.159 538.184 604.691L538.184 844.281C538.184 888.812 562.682 913.273 607.7 913.273ZM612.697 863.808C596.574 863.808 587.989 855.851 587.989 838.681L587.989 610.868C587.989 593.908 596.574 585.951 612.697 585.951L840.928 585.951C857.051 585.951 865.845 593.908 865.845 610.868L865.845 838.681C865.845 855.851 857.051 863.808 840.928 863.808L612.697 863.808ZM726.812 681.222C742.935 681.222 754.661 670.753 754.661 656.933C754.661 642.067 743.145 631.388 726.812 631.388C711.318 631.388 699.383 642.067 699.383 656.933C699.383 670.753 711.318 681.222 726.812 681.222ZM653.527 744.666L800.726 744.666C812.661 744.666 821.246 736.919 821.246 724.984C821.246 713.049 812.871 705.092 800.726 705.092L653.527 705.092C641.173 705.092 632.798 713.049 632.798 724.984C632.798 736.919 641.383 744.666 653.527 744.666ZM726.812 817.952C742.935 817.952 754.661 807.273 754.661 793.454C754.661 778.587 743.145 768.118 726.812 768.118C711.318 768.118 699.383 778.587 699.383 793.454C699.383 807.273 711.318 817.952 726.812 817.952Z" fill="#44ff3c" fill-rule="evenodd" filter="url(#Filter_2)" stroke="none" vectornator:shadowAngle="0.872667" vectornator:shadowColor="#24ff01" vectornator:shadowOffset="10" vectornator:shadowOpacity="0.308308" vectornator:shadowRadius="10"/>
<path d="M607.594 484.449L846.139 484.449C891.088 484.449 915.549 459.988 915.549 415.457L915.549 175.866C915.549 131.544 891.088 107.083 846.139 107.083L607.594 107.083C562.644 107.083 538.184 131.335 538.184 175.866L538.184 415.457C538.184 459.988 562.644 484.449 607.594 484.449ZM653.379 318.659C639.79 318.659 629.755 309.46 629.755 295.87C629.755 282.281 639.581 272.873 653.379 272.873L802.862 272.873C816.87 272.873 826.487 282.281 826.487 295.87C826.487 309.46 816.661 318.659 802.862 318.659L653.379 318.659Z" fill="#44ff3c" fill-rule="evenodd" filter="url(#Filter_3)" stroke="none" vectornator:shadowAngle="0.872667" vectornator:shadowColor="#24ff01" vectornator:shadowOffset="10" vectornator:shadowOpacity="0.308308" vectornator:shadowRadius="10"/>
<path d="M178.824 484.504L417.369 484.504C462.319 484.504 486.78 460.043 486.78 415.512L486.78 175.921C486.78 131.599 462.319 107.138 417.369 107.138L178.824 107.138C133.875 107.138 109.414 131.39 109.414 175.921L109.414 415.512C109.414 460.043 133.875 484.504 178.824 484.504ZM184.051 434.537C167.953 434.537 159.381 426.592 159.381 409.449L159.381 181.984C159.381 165.05 167.953 157.105 184.051 157.105L411.934 157.105C428.032 157.105 436.813 165.05 436.813 181.984L436.813 409.449C436.813 426.592 428.032 434.537 411.934 434.537L184.051 434.537ZM228.373 317.041L276.667 317.041L276.667 365.336C276.667 377.671 285.657 386.66 297.992 386.66C310.536 386.66 319.735 377.671 319.735 365.336L319.735 317.041L368.239 317.041C380.365 317.041 389.354 308.051 389.354 295.507C389.354 282.963 380.574 273.973 368.239 273.973L319.735 273.973L319.735 225.679C319.735 213.135 310.536 204.354 297.992 204.354C285.657 204.354 276.667 213.135 276.667 225.679L276.667 273.973L228.373 273.973C216.038 273.973 207.048 282.963 207.048 295.507C207.048 308.051 216.038 317.041 228.373 317.041Z" fill="#44ff3c" fill-rule="evenodd" filter="url(#Filter_4)" stroke="none" vectornator:shadowAngle="0.872667" vectornator:shadowColor="#24ff01" vectornator:shadowOffset="10" vectornator:shadowOpacity="0.308308" vectornator:shadowRadius="10"/>
</g>
</svg>
